<svg xmlns="http://www.w3.org/2000/svg" viewBox="0 0 120 100" fill="none">
  <!-- NASA Blue Sphere -->
  <circle cx="60" cy="50" r="46" fill="#0B3D91" />
  
  <!-- Starfield Clusters -->
  <g fill="#FFFFFF" opacity="0.95">
    <circle cx="34" cy="28" r="1" />
    <circle cx="42" cy="22" r="1.4" />
    <circle cx="28" cy="40" r="1" />
    <circle cx="36" cy="45" r="0.8" />
    <circle cx="48" cy="33" r="1.2" />
    <circle cx="55" cy="20" r="1" />
    <circle cx="68" cy="24" r="1.5" />
    <circle cx="78" cy="28" r="0.8" />
    <circle cx="88" cy="36" r="1.2" />
    <circle cx="75" cy="42" r="1" />
    <circle cx="85" cy="55" r="1.3" />
    <circle cx="92" cy="48" r="0.9" />
    <circle cx="78" cy="68" r="1.1" />
    <circle cx="66" cy="74" r="1" />
    <circle cx="40" cy="70" r="1.2" />
    <circle cx="30" cy="62" r="0.9" />
    <circle cx="24" cy="52" r="1.4" />
    <circle cx="52" cy="78" r="0.8" />
  </g>

  <!-- Orbital Ellipse -->
  <ellipse cx="60" cy="50" rx="48" ry="18" stroke="#FFFFFF" stroke-width="2.8" stroke-dasharray="160 30" transform="rotate(-30 60 50)" fill="none" opacity="0.95" />

  <!-- Red Supersonic Vector / Chevron -->
  <path d="M22 68 L78 22 L72 38 L98 12 L72 50 L64 42 Z" fill="#FC3D21" />
  <path d="M42 66 L78 22 L62 48 Z" fill="#E02910" />

  <!-- NASA Bold Typeface -->
  <text x="60" y="58" font-family="'Helvetica Neue', Helvetica, Arial, sans-serif" font-size="22" font-weight="900" fill="#FFFFFF" text-anchor="middle" letter-spacing="2.2">NASA</text>
</svg>
